# xmcd CD database file
#
# Track frame offsets:
#	150
#	13299
#	26610
#	36708
#	51531
#	75048
#	92382
#	103344
#	114333
#	124350
#	137526
#	154509
#	166659
#	180672
#	192714
#	202326
#	211263
#	226221
#	239289
#	250872
#	262563
#	277548
#	289185
#	301497
#
# Disc length: 4312 seconds
#
# Revision: 0
# Processed by: cddbd v1.5.1PL0 Copyright (c) Steve Scherf et al.
# Submitted via: CDex 1.51
#
DISCID=4810d618
DTITLE=Nicola Auriliano - Nu ritratto
DYEAR=1900
DGENRE=Jazz
TTITLE0=Marilù
TTITLE1=Nebbia
TTITLE2=Tressette a quattro
TTITLE3=Plenilunio
TTITLE4=All black magic
TTITLE5=Black coffee
TTITLE6=Sul tram
TTITLE7=Was it you
TTITLE8=Nun parlà
TTITLE9=Maramao perche sei morto
TTITLE10=Il flauto di Pellico
TTITLE11=L'amore viene e se ne va
TTITLE12=In cerca di te
TTITLE13=è quasi l'alba
TTITLE14=Il pinguino innamorato
TTITLE15=Quel motivetto
TTITLE16=Cherokee
TTITLE17=Nu ritratto e tanto tiempo fa
TTITLE18=Romantico amore
TTITLE19=La lontananza
TTITLE20=Così
TTITLE21=E suonne de suonne
TTITLE22=Blue moon
TTITLE23=The lady is a tramp
EXTD=
EXTT0=
EXTT1=
EXTT2=
EXTT3=
EXTT4=
EXTT5=
EXTT6=
EXTT7=
EXTT8=
EXTT9=
EXTT10=
EXTT11=
EXTT12=
EXTT13=
EXTT14=
EXTT15=
EXTT16=
EXTT17=
EXTT18=
EXTT19=
EXTT20=
EXTT21=
EXTT22=
EXTT23=
PLAYORDER=
